<?xml version="1.0" encoding="UTF-8" standalone="no"?>
<!DOCTYPE svg PUBLIC "-//W3C//DTD SVG 1.1//EN"
 "http://www.w3.org/Graphics/SVG/1.1/DTD/svg11.dtd">
<!-- Generated by graphviz version 2.43.0 (0)
 -->
<!-- Title: %3 Pages: 1 -->
<svg width="1004pt" height="635pt"
 viewBox="0.00 0.00 1004.00 634.75" xmlns="http://www.w3.org/2000/svg" xmlns:xlink="http://www.w3.org/1999/xlink">
<g id="graph0" class="graph" transform="scale(0.73 0.73) rotate(0) translate(4 871)">
<title>%3</title>
<polygon fill="white" stroke="transparent" points="-4,4 -4,-871 1380,-871 1380,4 -4,4"/>
<!-- 140514815970960 -->
<g id="node1" class="node">
<title>140514815970960</title>
<polygon fill="#caff70" stroke="black" points="113,-31 0,-31 0,0 113,0 113,-31"/>
<text text-anchor="middle" x="56.5" y="-7" font-family="monospace" font-size="10.00"> (1, 16, 32, 32)</text>
</g>
<!-- 140514817703072 -->
<g id="node2" class="node">
<title>140514817703072</title>
<polygon fill="lightgrey" stroke="black" points="169,-91.5 74,-91.5 74,-72.5 169,-72.5 169,-91.5"/>
<text text-anchor="middle" x="121.5" y="-79.5" font-family="monospace" font-size="10.00">SiluBackward0</text>
</g>
<!-- 140514817703072&#45;&gt;140514815970960 -->
<g id="edge47" class="edge">
<title>140514817703072&#45;&gt;140514815970960</title>
<path fill="none" stroke="black" d="M112.73,-72.3C104.09,-63.73 90.53,-50.27 78.89,-38.71"/>
<polygon fill="black" stroke="black" points="81.15,-36.03 71.59,-31.47 76.22,-41 81.15,-36.03"/>
</g>
<!-- 140514815971056 -->
<g id="node3" class="node">
<title>140514815971056</title>
<polygon fill="orange" stroke="black" points="244,-30.5 131,-30.5 131,-0.5 244,-0.5 244,-30.5"/>
<text text-anchor="middle" x="187.5" y="-18.5" font-family="monospace" font-size="10.00">self</text>
<text text-anchor="middle" x="187.5" y="-7.5" font-family="monospace" font-size="10.00"> (1, 16, 32, 32)</text>
</g>
<!-- 140514817703072&#45;&gt;140514815971056 -->
<g id="edge1" class="edge">
<title>140514817703072&#45;&gt;140514815971056</title>
<path fill="none" stroke="black" d="M130.4,-72.3C141.31,-61.64 159.94,-43.43 172.94,-30.73"/>
</g>
<!-- 140514817698704 -->
<g id="node4" class="node">
<title>140514817698704</title>
<polygon fill="lightgrey" stroke="black" points="282,-157.5 193,-157.5 193,-138.5 282,-138.5 282,-157.5"/>
<text text-anchor="middle" x="237.5" y="-145.5" font-family="monospace" font-size="10.00">MulBackward0</text>
</g>
<!-- 140514817698704&#45;&gt;140514817703072 -->
<g id="edge2" class="edge">
<title>140514817698704&#45;&gt;140514817703072</title>
<path fill="none" stroke="black" d="M221.86,-138.37C202.4,-127.63 168.95,-109.18 146.06,-96.55"/>
<polygon fill="black" stroke="black" points="147.71,-93.47 137.27,-91.7 144.33,-99.59 147.71,-93.47"/>
</g>
<!-- 140514815970864 -->
<g id="node5" class="node">
<title>140514815970864</title>
<polygon fill="orange" stroke="black" points="288,-97 187,-97 187,-67 288,-67 288,-97"/>
<text text-anchor="middle" x="237.5" y="-85" font-family="monospace" font-size="10.00">other</text>
<text text-anchor="middle" x="237.5" y="-74" font-family="monospace" font-size="10.00"> (1, 16, 1, 1)</text>
</g>
<!-- 140514817698704&#45;&gt;140514815970864 -->
<g id="edge3" class="edge">
<title>140514817698704&#45;&gt;140514815970864</title>
<path fill="none" stroke="black" d="M237.5,-138.37C237.5,-127.86 237.5,-109.96 237.5,-97.36"/>
</g>
<!-- 140514815970480 -->
<g id="node6" class="node">
<title>140514815970480</title>
<polygon fill="orange" stroke="black" points="419,-97 306,-97 306,-67 419,-67 419,-97"/>
<text text-anchor="middle" x="362.5" y="-85" font-family="monospace" font-size="10.00">self</text>
<text text-anchor="middle" x="362.5" y="-74" font-family="monospace" font-size="10.00"> (1, 16, 32, 32)</text>
</g>
<!-- 140514817698704&#45;&gt;140514815970480 -->
<g id="edge4" class="edge">
<title>140514817698704&#45;&gt;140514815970480</title>
<path fill="none" stroke="black" d="M254.36,-138.37C275.02,-127.79 310.3,-109.72 334.93,-97.12"/>
</g>
<!-- 140514817688528 -->
<g id="node7" class="node">
<title>140514817688528</title>
<polygon fill="lightgrey" stroke="black" points="597,-625 436,-625 436,-606 597,-606 597,-625"/>
<text text-anchor="middle" x="516.5" y="-613" font-family="monospace" font-size="10.00">NativeBatchNormBackward0</text>
</g>
<!-- 140514817688528&#45;&gt;140514817698704 -->
<g id="edge5" class="edge">
<title>140514817688528&#45;&gt;140514817698704</title>
<path fill="none" stroke="black" d="M435.91,-614.04C347.94,-611.84 214.63,-602.95 177.5,-570 151.94,-547.32 158.5,-529.67 158.5,-495.5 158.5,-495.5 158.5,-495.5 158.5,-262.5 158.5,-221.02 194.49,-183.83 217.88,-164.03"/>
<polygon fill="black" stroke="black" points="220.3,-166.58 225.84,-157.55 215.88,-161.15 220.3,-166.58"/>
</g>
<!-- 140514815970288 -->
<g id="node8" class="node">
<title>140514815970288</title>
<polygon fill="orange" stroke="black" points="300,-570 187,-570 187,-540 300,-540 300,-570"/>
<text text-anchor="middle" x="243.5" y="-558" font-family="monospace" font-size="10.00">input</text>
<text text-anchor="middle" x="243.5" y="-547" font-family="monospace" font-size="10.00"> (1, 16, 32, 32)</text>
</g>
<!-- 140514817688528&#45;&gt;140514815970288 -->
<g id="edge6" class="edge">
<title>140514817688528&#45;&gt;140514815970288</title>
<path fill="none" stroke="black" d="M476.62,-605.99C434.75,-597.04 366.99,-582.56 308.5,-570 305.79,-569.42 303.02,-568.82 300.22,-568.22"/>
</g>
<!-- 140514815971632 -->
<g id="node9" class="node">
<title>140514815971632</title>
<polygon fill="orange" stroke="black" points="377,-570 318,-570 318,-540 377,-540 377,-570"/>
<text text-anchor="middle" x="347.5" y="-558" font-family="monospace" font-size="10.00">result1</text>
<text text-anchor="middle" x="347.5" y="-547" font-family="monospace" font-size="10.00"> (16)</text>
</g>
<!-- 140514817688528&#45;&gt;140514815971632 -->
<g id="edge7" class="edge">
<title>140514817688528&#45;&gt;140514815971632</title>
<path fill="none" stroke="black" d="M490.83,-606C464.37,-597.18 421.95,-582.9 385.5,-570 382.85,-569.06 380.1,-568.07 377.34,-567.08"/>
</g>
<!-- 140514815971920 -->
<g id="node10" class="node">
<title>140514815971920</title>
<polygon fill="orange" stroke="black" points="454,-570 395,-570 395,-540 454,-540 454,-570"/>
<text text-anchor="middle" x="424.5" y="-558" font-family="monospace" font-size="10.00">result2</text>
<text text-anchor="middle" x="424.5" y="-547" font-family="monospace" font-size="10.00"> (16)</text>
</g>
<!-- 140514817688528&#45;&gt;140514815971920 -->
<g id="edge8" class="edge">
<title>140514817688528&#45;&gt;140514815971920</title>
<path fill="none" stroke="black" d="M502.93,-605.87C488.13,-596.46 464.23,-581.26 446.7,-570.11"/>
</g>
<!-- 140514817294256 -->
<g id="node11" class="node">
<title>140514817294256</title>
<polygon fill="orange" stroke="black" points="561,-570 472,-570 472,-540 561,-540 561,-570"/>
<text text-anchor="middle" x="516.5" y="-558" font-family="monospace" font-size="10.00">running_mean</text>
<text text-anchor="middle" x="516.5" y="-547" font-family="monospace" font-size="10.00"> (16)</text>
</g>
<!-- 140514817688528&#45;&gt;140514817294256 -->
<g id="edge9" class="edge">
<title>140514817688528&#45;&gt;140514817294256</title>
<path fill="none" stroke="black" d="M516.5,-605.87C516.5,-596.46 516.5,-581.26 516.5,-570.11"/>
</g>
<!-- 140514817291760 -->
<g id="node12" class="node">
<title>140514817291760</title>
<polygon fill="orange" stroke="black" points="662,-570 579,-570 579,-540 662,-540 662,-570"/>
<text text-anchor="middle" x="620.5" y="-558" font-family="monospace" font-size="10.00">running_var</text>
<text text-anchor="middle" x="620.5" y="-547" font-family="monospace" font-size="10.00"> (16)</text>
</g>
<!-- 140514817688528&#45;&gt;140514817291760 -->
<g id="edge10" class="edge">
<title>140514817688528&#45;&gt;140514817291760</title>
<path fill="none" stroke="black" d="M531.85,-605.87C548.57,-596.46 575.59,-581.26 595.41,-570.11"/>
</g>
<!-- 140514817291472 -->
<g id="node13" class="node">
<title>140514817291472</title>
<polygon fill="lightblue" stroke="black" points="790,-570 719,-570 719,-540 790,-540 790,-570"/>
<text text-anchor="middle" x="754.5" y="-558" font-family="monospace" font-size="10.00">bn.weight</text>
<text text-anchor="middle" x="754.5" y="-547" font-family="monospace" font-size="10.00"> (16)</text>
</g>
<!-- 140514817688528&#45;&gt;140514817291472 -->
<g id="edge11" class="edge">
<title>140514817688528&#45;&gt;140514817291472</title>
<path fill="none" stroke="black" d="M554.42,-606C592.47,-597.36 652.7,-583.38 704.5,-570 709.13,-568.81 713.98,-567.51 718.77,-566.19"/>
</g>
<!-- 140514818534816 -->
<g id="node39" class="node">
<title>140514818534816</title>
<polygon fill="lightgrey" stroke="black" points="903,-564.5 808,-564.5 808,-545.5 903,-545.5 903,-564.5"/>
<text text-anchor="middle" x="855.5" y="-552.5" font-family="monospace" font-size="10.00">MeanBackward1</text>
</g>
<!-- 140514817688528&#45;&gt;140514818534816 -->
<g id="edge44" class="edge">
<title>140514817688528&#45;&gt;140514818534816</title>
<path fill="none" stroke="black" d="M581.42,-605.97C638.97,-598 725.17,-585.1 799.5,-570 803.99,-569.09 808.65,-568.06 813.29,-566.98"/>
<polygon fill="black" stroke="black" points="814.43,-570.3 823.33,-564.56 812.79,-563.5 814.43,-570.3"/>
</g>
<!-- 140514817693280 -->
<g id="node27" class="node">
<title>140514817693280</title>
<polygon fill="lightgrey" stroke="black" points="751,-504 650,-504 650,-485 751,-485 751,-504"/>
<text text-anchor="middle" x="700.5" y="-492" font-family="monospace" font-size="10.00">AccumulateGrad</text>
</g>
<!-- 140514817291472&#45;&gt;140514817693280 -->
<g id="edge31" class="edge">
<title>140514817291472&#45;&gt;140514817693280</title>
<path fill="none" stroke="black" d="M741.43,-539.84C733.59,-531.35 723.59,-520.52 715.44,-511.69"/>
<polygon fill="black" stroke="black" points="717.95,-509.24 708.59,-504.27 712.8,-513.99 717.95,-509.24"/>
</g>
<!-- 140514817691840 -->
<g id="node14" class="node">
<title>140514817691840</title>
<polygon fill="lightgrey" stroke="black" points="650,-680 561,-680 561,-661 650,-661 650,-680"/>
<text text-anchor="middle" x="605.5" y="-668" font-family="monospace" font-size="10.00">CatBackward0</text>
</g>
<!-- 140514817691840&#45;&gt;140514817688528 -->
<g id="edge12" class="edge">
<title>140514817691840&#45;&gt;140514817688528</title>
<path fill="none" stroke="black" d="M591.2,-660.98C577.4,-652.77 556.26,-640.18 539.99,-630.49"/>
<polygon fill="black" stroke="black" points="541.44,-627.28 531.06,-625.17 537.86,-633.29 541.44,-627.28"/>
</g>
<!-- 140514817700528 -->
<g id="node15" class="node">
<title>140514817700528</title>
<polygon fill="lightgrey" stroke="black" points="655,-867 518,-867 518,-848 655,-848 655,-867"/>
<text text-anchor="middle" x="586.5" y="-855" font-family="monospace" font-size="10.00">ConvolutionBackward0</text>
</g>
<!-- 140514817700528&#45;&gt;140514817691840 -->
<g id="edge13" class="edge">
<title>140514817700528&#45;&gt;140514817691840</title>
<path fill="none" stroke="black" d="M587.42,-847.58C590.34,-819.07 599.52,-729.74 603.56,-690.41"/>
<polygon fill="black" stroke="black" points="607.05,-690.64 604.59,-680.33 600.09,-689.92 607.05,-690.64"/>
</g>
<!-- 140514815968656 -->
<g id="node16" class="node">
<title>140514815968656</title>
<polygon fill="orange" stroke="black" points="741,-812 634,-812 634,-782 741,-782 741,-812"/>
<text text-anchor="middle" x="687.5" y="-800" font-family="monospace" font-size="10.00">input</text>
<text text-anchor="middle" x="687.5" y="-789" font-family="monospace" font-size="10.00"> (1, 3, 32, 32)</text>
</g>
<!-- 140514817700528&#45;&gt;140514815968656 -->
<g id="edge14" class="edge">
<title>140514817700528&#45;&gt;140514815968656</title>
<path fill="none" stroke="black" d="M601.4,-847.87C617.65,-838.46 643.88,-823.26 663.13,-812.11"/>
</g>
<!-- 140514817291952 -->
<g id="node17" class="node">
<title>140514817291952</title>
<polygon fill="lightblue" stroke="black" points="539,-812 444,-812 444,-782 539,-782 539,-812"/>
<text text-anchor="middle" x="491.5" y="-800" font-family="monospace" font-size="10.00">conv.weight</text>
<text text-anchor="middle" x="491.5" y="-789" font-family="monospace" font-size="10.00"> (8, 3, 3, 3)</text>
</g>
<!-- 140514817700528&#45;&gt;140514817291952 -->
<g id="edge15" class="edge">
<title>140514817700528&#45;&gt;140514817291952</title>
<path fill="none" stroke="black" d="M572.48,-847.87C557.2,-838.46 532.53,-823.26 514.42,-812.11"/>
</g>
<!-- 140514817697648 -->
<g id="node18" class="node">
<title>140514817697648</title>
<polygon fill="lightgrey" stroke="black" points="577,-740.5 476,-740.5 476,-721.5 577,-721.5 577,-740.5"/>
<text text-anchor="middle" x="526.5" y="-728.5" font-family="monospace" font-size="10.00">AccumulateGrad</text>
</g>
<!-- 140514817291952&#45;&gt;140514817697648 -->
<g id="edge17" class="edge">
<title>140514817291952&#45;&gt;140514817697648</title>
<path fill="none" stroke="black" d="M499.27,-781.8C504.46,-772.31 511.32,-759.76 516.86,-749.63"/>
<polygon fill="black" stroke="black" points="519.94,-751.3 521.66,-740.84 513.79,-747.94 519.94,-751.3"/>
</g>
<!-- 140514817697648&#45;&gt;140514817700528 -->
<g id="edge16" class="edge">
<title>140514817697648&#45;&gt;140514817700528</title>
<path fill="none" stroke="black" d="M530.65,-740.62C540.4,-760.85 564.91,-811.7 577.98,-838.82"/>
<polygon fill="black" stroke="black" points="574.88,-840.45 582.38,-847.94 581.19,-837.41 574.88,-840.45"/>
</g>
<!-- 140514817700384 -->
<g id="node19" class="node">
<title>140514817700384</title>
<polygon fill="lightgrey" stroke="black" points="1033,-740.5 944,-740.5 944,-721.5 1033,-721.5 1033,-740.5"/>
<text text-anchor="middle" x="988.5" y="-728.5" font-family="monospace" font-size="10.00">CatBackward0</text>
</g>
<!-- 140514817700384&#45;&gt;140514817691840 -->
<g id="edge18" class="edge">
<title>140514817700384&#45;&gt;140514817691840</title>
<path fill="none" stroke="black" d="M945.71,-721.45C935.81,-719.56 925.3,-717.64 915.5,-716 826.23,-701.04 721.96,-686.72 659.96,-678.53"/>
<polygon fill="black" stroke="black" points="660.38,-675.06 650.01,-677.22 659.46,-682 660.38,-675.06"/>
</g>
<!-- 140514817703888 -->
<g id="node20" class="node">
<title>140514817703888</title>
<polygon fill="lightgrey" stroke="black" points="1029,-867 892,-867 892,-848 1029,-848 1029,-867"/>
<text text-anchor="middle" x="960.5" y="-855" font-family="monospace" font-size="10.00">ConvolutionBackward0</text>
</g>
<!-- 140514817703888&#45;&gt;140514815968656 -->
<g id="edge20" class="edge">
<title>140514817703888&#45;&gt;140514815968656</title>
<path fill="none" stroke="black" d="M919.43,-847.92C877.08,-839.05 809.14,-824.73 750.5,-812 747.43,-811.33 744.29,-810.65 741.11,-809.95"/>
</g>
<!-- 140514817703888&#45;&gt;140514817700384 -->
<g id="edge19" class="edge">
<title>140514817703888&#45;&gt;140514817700384</title>
<path fill="none" stroke="black" d="M963.64,-847.73C966.73,-838.83 971.43,-824.59 974.5,-812 979.5,-791.5 983.44,-767.62 985.85,-751.33"/>
<polygon fill="black" stroke="black" points="989.38,-751.35 987.32,-740.96 982.45,-750.36 989.38,-751.35"/>
</g>
<!-- 140514817292912 -->
<g id="node21" class="node">
<title>140514817292912</title>
<polygon fill="lightblue" stroke="black" points="932,-812 759,-812 759,-782 932,-782 932,-812"/>
<text text-anchor="middle" x="845.5" y="-800" font-family="monospace" font-size="10.00">gsconv.primary_conv.weight</text>
<text text-anchor="middle" x="845.5" y="-789" font-family="monospace" font-size="10.00"> (4, 3, 3, 3)</text>
</g>
<!-- 140514817703888&#45;&gt;140514817292912 -->
<g id="edge21" class="edge">
<title>140514817703888&#45;&gt;140514817292912</title>
<path fill="none" stroke="black" d="M943.53,-847.87C925.04,-838.46 895.16,-823.26 873.25,-812.11"/>
</g>
<!-- 140514817689824 -->
<g id="node23" class="node">
<title>140514817689824</title>
<polygon fill="lightgrey" stroke="black" points="1164,-806.5 1027,-806.5 1027,-787.5 1164,-787.5 1164,-806.5"/>
<text text-anchor="middle" x="1095.5" y="-794.5" font-family="monospace" font-size="10.00">ConvolutionBackward0</text>
</g>
<!-- 140514817703888&#45;&gt;140514817689824 -->
<g id="edge27" class="edge">
<title>140514817703888&#45;&gt;140514817689824</title>
<path fill="none" stroke="black" d="M980.13,-847.99C1002.83,-838.16 1040.4,-821.88 1066.47,-810.58"/>
<polygon fill="black" stroke="black" points="1068.06,-813.7 1075.85,-806.52 1065.28,-807.28 1068.06,-813.7"/>
</g>
<!-- 140514817698128 -->
<g id="node22" class="node">
<title>140514817698128</title>
<polygon fill="lightgrey" stroke="black" points="906,-740.5 805,-740.5 805,-721.5 906,-721.5 906,-740.5"/>
<text text-anchor="middle" x="855.5" y="-728.5" font-family="monospace" font-size="10.00">AccumulateGrad</text>
</g>
<!-- 140514817292912&#45;&gt;140514817698128 -->
<g id="edge23" class="edge">
<title>140514817292912&#45;&gt;140514817698128</title>
<path fill="none" stroke="black" d="M847.72,-781.8C849.14,-772.7 851,-760.79 852.55,-750.9"/>
<polygon fill="black" stroke="black" points="856.03,-751.26 854.12,-740.84 849.12,-750.18 856.03,-751.26"/>
</g>
<!-- 140514817698128&#45;&gt;140514817703888 -->
<g id="edge22" class="edge">
<title>140514817698128&#45;&gt;140514817703888</title>
<path fill="none" stroke="black" d="M881.07,-740.62C900.47,-748.45 926.3,-761.88 941.5,-782 953.67,-798.11 958.09,-821.2 959.67,-837.39"/>
<polygon fill="black" stroke="black" points="956.21,-838.03 960.39,-847.76 963.19,-837.54 956.21,-838.03"/>
</g>
<!-- 140514817689824&#45;&gt;140514817700384 -->
<g id="edge24" class="edge">
<title>140514817689824&#45;&gt;140514817700384</title>
<path fill="none" stroke="black" d="M1081.07,-787.37C1063.28,-776.73 1032.82,-758.51 1011.72,-745.89"/>
<polygon fill="black" stroke="black" points="1013.42,-742.83 1003.04,-740.7 1009.83,-748.84 1013.42,-742.83"/>
</g>
<!-- 140514815968752 -->
<g id="node24" class="node">
<title>140514815968752</title>
<polygon fill="orange" stroke="black" points="1197,-746 1090,-746 1090,-716 1197,-716 1197,-746"/>
<text text-anchor="middle" x="1143.5" y="-734" font-family="monospace" font-size="10.00">input</text>
<text text-anchor="middle" x="1143.5" y="-723" font-family="monospace" font-size="10.00"> (1, 4, 32, 32)</text>
</g>
<!-- 140514817689824&#45;&gt;140514815968752 -->
<g id="edge25" class="edge">
<title>140514817689824&#45;&gt;140514815968752</title>
<path fill="none" stroke="black" d="M1101.97,-787.37C1109.86,-776.86 1123.28,-758.96 1132.73,-746.36"/>
</g>
<!-- 140514817293008 -->
<g id="node25" class="node">
<title>140514817293008</title>
<polygon fill="lightblue" stroke="black" points="1376,-746 1215,-746 1215,-716 1376,-716 1376,-746"/>
<text text-anchor="middle" x="1295.5" y="-734" font-family="monospace" font-size="10.00">gsconv.cheap_conv.weight</text>
<text text-anchor="middle" x="1295.5" y="-723" font-family="monospace" font-size="10.00"> (4, 4, 1, 1)</text>
</g>
<!-- 140514817689824&#45;&gt;140514817293008 -->
<g id="edge26" class="edge">
<title>140514817689824&#45;&gt;140514817293008</title>
<path fill="none" stroke="black" d="M1122.47,-787.37C1155.53,-776.79 1211.98,-758.72 1251.39,-746.12"/>
</g>
<!-- 140514817699184 -->
<g id="node26" class="node">
<title>140514817699184</title>
<polygon fill="lightgrey" stroke="black" points="1229,-680 1128,-680 1128,-661 1229,-661 1229,-680"/>
<text text-anchor="middle" x="1178.5" y="-668" font-family="monospace" font-size="10.00">AccumulateGrad</text>
</g>
<!-- 140514817293008&#45;&gt;140514817699184 -->
<g id="edge29" class="edge">
<title>140514817293008&#45;&gt;140514817699184</title>
<path fill="none" stroke="black" d="M1267.48,-715.99C1248.48,-706.49 1223.53,-694.02 1204.89,-684.69"/>
<polygon fill="black" stroke="black" points="1206.29,-681.48 1195.78,-680.14 1203.16,-687.74 1206.29,-681.48"/>
</g>
<!-- 140514817699184&#45;&gt;140514817689824 -->
<g id="edge28" class="edge">
<title>140514817699184&#45;&gt;140514817689824</title>
<path fill="none" stroke="black" d="M1135.37,-680.07C1115.38,-686.43 1093.45,-697.36 1081.5,-716 1069.41,-734.85 1077.71,-761.1 1085.75,-778.32"/>
<polygon fill="black" stroke="black" points="1082.66,-779.95 1090.3,-787.29 1088.9,-776.78 1082.66,-779.95"/>
</g>
<!-- 140514817693280&#45;&gt;140514817688528 -->
<g id="edge30" class="edge">
<title>140514817693280&#45;&gt;140514817688528</title>
<path fill="none" stroke="black" d="M699.6,-504.26C697.52,-519.8 690.98,-552.23 671.5,-570 653.41,-586.5 629.6,-596.92 606.07,-603.49"/>
<polygon fill="black" stroke="black" points="605.19,-600.1 596.38,-605.99 606.94,-606.88 605.19,-600.1"/>
</g>
<!-- 140514817689392 -->
<g id="node28" class="node">
<title>140514817689392</title>
<polygon fill="lightgrey" stroke="black" points="511,-680 410,-680 410,-661 511,-661 511,-680"/>
<text text-anchor="middle" x="460.5" y="-668" font-family="monospace" font-size="10.00">AccumulateGrad</text>
</g>
<!-- 140514817689392&#45;&gt;140514817688528 -->
<g id="edge32" class="edge">
<title>140514817689392&#45;&gt;140514817688528</title>
<path fill="none" stroke="black" d="M469.5,-660.98C477.69,-653.23 490.01,-641.58 499.97,-632.14"/>
<polygon fill="black" stroke="black" points="502.48,-634.59 507.34,-625.17 497.67,-629.5 502.48,-634.59"/>
</g>
<!-- 140514817292144 -->
<g id="node29" class="node">
<title>140514817292144</title>
<polygon fill="lightblue" stroke="black" points="458,-746 399,-746 399,-716 458,-716 458,-746"/>
<text text-anchor="middle" x="428.5" y="-734" font-family="monospace" font-size="10.00">bn.bias</text>
<text text-anchor="middle" x="428.5" y="-723" font-family="monospace" font-size="10.00"> (16)</text>
</g>
<!-- 140514817292144&#45;&gt;140514817689392 -->
<g id="edge33" class="edge">
<title>140514817292144&#45;&gt;140514817689392</title>
<path fill="none" stroke="black" d="M436.25,-715.84C440.65,-707.78 446.21,-697.62 450.9,-689.06"/>
<polygon fill="black" stroke="black" points="453.98,-690.72 455.7,-680.27 447.84,-687.36 453.98,-690.72"/>
</g>
<!-- 140514817695440 -->
<g id="node30" class="node">
<title>140514817695440</title>
<polygon fill="lightgrey" stroke="black" points="446,-218 333,-218 333,-199 446,-199 446,-218"/>
<text text-anchor="middle" x="389.5" y="-206" font-family="monospace" font-size="10.00">SigmoidBackward0</text>
</g>
<!-- 140514817695440&#45;&gt;140514817698704 -->
<g id="edge34" class="edge">
<title>140514817695440&#45;&gt;140514817698704</title>
<path fill="none" stroke="black" d="M367.4,-198.99C341.51,-189.03 298.42,-172.45 269.03,-161.13"/>
<polygon fill="black" stroke="black" points="270.22,-157.84 259.63,-157.52 267.7,-164.38 270.22,-157.84"/>
</g>
<!-- 140514815975472 -->
<g id="node31" class="node">
<title>140514815975472</title>
<polygon fill="orange" stroke="black" points="440,-163 339,-163 339,-133 440,-133 440,-163"/>
<text text-anchor="middle" x="389.5" y="-151" font-family="monospace" font-size="10.00">result</text>
<text text-anchor="middle" x="389.5" y="-140" font-family="monospace" font-size="10.00"> (1, 16, 1, 1)</text>
</g>
<!-- 140514817695440&#45;&gt;140514815975472 -->
<g id="edge35" class="edge">
<title>140514817695440&#45;&gt;140514815975472</title>
<path fill="none" stroke="black" d="M389.5,-198.87C389.5,-189.46 389.5,-174.26 389.5,-163.11"/>
</g>
<!-- 140514817697888 -->
<g id="node32" class="node">
<title>140514817697888</title>
<polygon fill="lightgrey" stroke="black" points="772,-273 647,-273 647,-254 772,-254 772,-273"/>
<text text-anchor="middle" x="709.5" y="-261" font-family="monospace" font-size="10.00">UnsqueezeBackward0</text>
</g>
<!-- 140514817697888&#45;&gt;140514817695440 -->
<g id="edge36" class="edge">
<title>140514817697888&#45;&gt;140514817695440</title>
<path fill="none" stroke="black" d="M658.09,-253.98C601.72,-244.65 511.31,-229.67 451.17,-219.71"/>
<polygon fill="black" stroke="black" points="451.49,-216.22 441.05,-218.04 450.34,-223.13 451.49,-216.22"/>
</g>
<!-- 140514817697744 -->
<g id="node33" class="node">
<title>140514817697744</title>
<polygon fill="lightgrey" stroke="black" points="794,-333.5 669,-333.5 669,-314.5 794,-314.5 794,-333.5"/>
<text text-anchor="middle" x="731.5" y="-321.5" font-family="monospace" font-size="10.00">TransposeBackward0</text>
</g>
<!-- 140514817697744&#45;&gt;140514817697888 -->
<g id="edge37" class="edge">
<title>140514817697744&#45;&gt;140514817697888</title>
<path fill="none" stroke="black" d="M728.25,-314.37C725.13,-306.07 720.32,-293.28 716.35,-282.72"/>
<polygon fill="black" stroke="black" points="719.56,-281.3 712.76,-273.17 713,-283.76 719.56,-281.3"/>
</g>
<!-- 140514818531120 -->
<g id="node34" class="node">
<title>140514818531120</title>
<polygon fill="lightgrey" stroke="black" points="666,-394 529,-394 529,-375 666,-375 666,-394"/>
<text text-anchor="middle" x="597.5" y="-382" font-family="monospace" font-size="10.00">ConvolutionBackward0</text>
</g>
<!-- 140514818531120&#45;&gt;140514817697744 -->
<g id="edge38" class="edge">
<title>140514818531120&#45;&gt;140514817697744</title>
<path fill="none" stroke="black" d="M616.98,-374.99C639.51,-365.16 676.81,-348.88 702.69,-337.58"/>
<polygon fill="black" stroke="black" points="704.23,-340.73 711.99,-333.52 701.43,-334.31 704.23,-340.73"/>
</g>
<!-- 140514815970768 -->
<g id="node35" class="node">
<title>140514815970768</title>
<polygon fill="orange" stroke="black" points="487,-339 404,-339 404,-309 487,-309 487,-339"/>
<text text-anchor="middle" x="445.5" y="-327" font-family="monospace" font-size="10.00">input</text>
<text text-anchor="middle" x="445.5" y="-316" font-family="monospace" font-size="10.00"> (1, 1, 16)</text>
</g>
<!-- 140514818531120&#45;&gt;140514815970768 -->
<g id="edge39" class="edge">
<title>140514818531120&#45;&gt;140514815970768</title>
<path fill="none" stroke="black" d="M575.4,-374.99C550.94,-365.58 511.15,-350.27 482.04,-339.06"/>
</g>
<!-- 140514817916752 -->
<g id="node36" class="node">
<title>140514817916752</title>
<polygon fill="lightblue" stroke="black" points="651,-339 544,-339 544,-309 651,-309 651,-339"/>
<text text-anchor="middle" x="597.5" y="-327" font-family="monospace" font-size="10.00">eca.conv.weight</text>
<text text-anchor="middle" x="597.5" y="-316" font-family="monospace" font-size="10.00"> (1, 1, 3)</text>
</g>
<!-- 140514818531120&#45;&gt;140514817916752 -->
<g id="edge40" class="edge">
<title>140514818531120&#45;&gt;140514817916752</title>
<path fill="none" stroke="black" d="M597.5,-374.87C597.5,-365.46 597.5,-350.26 597.5,-339.11"/>
</g>
<!-- 140514818534576 -->
<g id="node40" class="node">
<title>140514818534576</title>
<polygon fill="lightgrey" stroke="black" points="587,-273 486,-273 486,-254 587,-254 587,-273"/>
<text text-anchor="middle" x="536.5" y="-261" font-family="monospace" font-size="10.00">AccumulateGrad</text>
</g>
<!-- 140514817916752&#45;&gt;140514818534576 -->
<g id="edge46" class="edge">
<title>140514817916752&#45;&gt;140514818534576</title>
<path fill="none" stroke="black" d="M582.73,-308.84C573.79,-300.26 562.36,-289.3 553.1,-280.42"/>
<polygon fill="black" stroke="black" points="555.28,-277.66 545.64,-273.27 550.44,-282.71 555.28,-277.66"/>
</g>
<!-- 140514818534624 -->
<g id="node37" class="node">
<title>140514818534624</title>
<polygon fill="lightgrey" stroke="black" points="784,-449 659,-449 659,-430 784,-430 784,-449"/>
<text text-anchor="middle" x="721.5" y="-437" font-family="monospace" font-size="10.00">TransposeBackward0</text>
</g>
<!-- 140514818534624&#45;&gt;140514818531120 -->
<g id="edge41" class="edge">
<title>140514818534624&#45;&gt;140514818531120</title>
<path fill="none" stroke="black" d="M701.58,-429.98C681.45,-421.38 650.12,-407.99 627.09,-398.15"/>
<polygon fill="black" stroke="black" points="628.36,-394.88 617.79,-394.17 625.6,-401.32 628.36,-394.88"/>
</g>
<!-- 140514818534672 -->
<g id="node38" class="node">
<title>140514818534672</title>
<polygon fill="lightgrey" stroke="black" points="902,-504 789,-504 789,-485 902,-485 902,-504"/>
<text text-anchor="middle" x="845.5" y="-492" font-family="monospace" font-size="10.00">SqueezeBackward1</text>
</g>
<!-- 140514818534672&#45;&gt;140514818534624 -->
<g id="edge42" class="edge">
<title>140514818534672&#45;&gt;140514818534624</title>
<path fill="none" stroke="black" d="M825.58,-484.98C805.45,-476.38 774.12,-462.99 751.09,-453.15"/>
<polygon fill="black" stroke="black" points="752.36,-449.88 741.79,-449.17 749.6,-456.32 752.36,-449.88"/>
</g>
<!-- 140514818534816&#45;&gt;140514818534672 -->
<g id="edge43" class="edge">
<title>140514818534816&#45;&gt;140514818534672</title>
<path fill="none" stroke="black" d="M854.02,-545.37C852.62,-537.16 850.46,-524.54 848.67,-514.05"/>
<polygon fill="black" stroke="black" points="852.12,-513.43 846.98,-504.17 845.22,-514.61 852.12,-513.43"/>
</g>
<!-- 140514818534576&#45;&gt;140514818531120 -->
<g id="edge45" class="edge">
<title>140514818534576&#45;&gt;140514818531120</title>
<path fill="none" stroke="black" d="M533.85,-273.36C530.02,-287.97 524.52,-317.59 535.5,-339 542.46,-352.56 555.69,-362.93 568.15,-370.22"/>
<polygon fill="black" stroke="black" points="566.52,-373.32 576.98,-375 569.85,-367.16 566.52,-373.32"/>
</g>
</g>
</svg>
